<?xml version="1.0" encoding="utf-8"?>
<svg style="fill: white" version="1.1" xmlns="http://www.w3.org/2000/svg" xmlns:xlink="http://www.w3.org/1999/xlink" x="0px" y="0px"
	 viewBox="0 0 1618.958 657.255" enable-background="new 0 0 1618.958 657.255" xml:space="preserve">
<g>
	<g id="R_4_">
		<g>
			<path d="M241.634,104.227c16.48,17.618,24.716,39.211,24.716,64.497c0,26.141-8.521,48.303-25.287,66.204
				c-17.332,19.036-39.492,28.697-66.202,28.697c-27.843,0-50.007-9.092-66.487-27.562c-15.909-17.332-23.868-39.494-23.868-66.77
				c0-28.412,10.23-51.711,30.404-69.896c17.047-15.628,37.788-23.299,62.226-23.299C202.99,76.099,224.583,85.476,241.634,104.227z
				 M111.502,145.428c0,12.217,2.271,25.57,6.536,39.777c5.68,17.332,13.353,32.108,23.012,44.325
				c12.786,15.343,27.277,23.014,43.471,23.014c4.831,0,10.23-0.852,15.913-2.556c26.424-7.673,39.496-26.424,39.496-56.259
				c0-11.932-2.275-25.003-6.536-39.209c-14.49-45.746-36.369-68.477-66.202-68.477c-5.969,0-11.934,0.852-17.903,2.842
				C124.003,96.273,111.502,115.024,111.502,145.428z"/>
			<path d="M401.575,81.214c9.374,5.115,17.332,10.228,24.435,14.774c1.134,0.569,2.271,0.569,3.409,0.569
				c6.25,0,10.511-4.546,12.501-13.922h4.831v61.656h-4.261c-1.138-8.24-2.842-14.49-5.398-19.605
				c-12.786-25.003-31.823-37.504-57.68-37.504c-13.924,0-26.139,3.125-36.935,9.659c-21.597,12.786-32.108,36.369-32.108,70.466
				c0,19.603,2.842,35.231,8.525,48.869c10.796,25.572,29.548,38.358,56.539,38.358c30.404,0,50.859-17.332,61.66-51.997l6.25,0.283
				c-1.99,13.071-6.821,25.289-15.343,36.369c-12.219,17.901-32.393,24.72-54.838,24.72c-17.047,0-32.96-3.977-47.736-12.217
				c-14.772-8.523-26.139-20.457-34.379-36.369c-7.669-15.059-11.649-30.402-11.649-47.734c0-22.447,6.25-42.052,19.036-58.816
				c16.48-22.162,40.063-33.527,70.748-33.527C383.958,75.247,394.754,77.236,401.575,81.214z"/>
			<path d="M496.171,258.794h6.817c7.955,0,13.353-2.556,17.047-7.388c1.99-3.125,2.842-9.944,2.842-20.741V105.648
				c0-6.25-0.567-12.501-3.694-18.184h-19.889c-8.24,0-13.924,0.569-17.618,1.704c-11.93,3.694-18.466,13.924-19.603,30.687h-5.398
				l2.271-44.04h153.715l1.99,44.04h-5.398c-0.852-7.671-2.271-13.355-3.975-16.48c-5.684-10.513-15.913-15.911-30.404-15.911
				h-25.287c-2.556,3.125-3.694,10.23-3.694,21.595v121.607c0,9.661,0.567,15.911,1.704,18.753c2.556,6.25,8.525,9.376,18.47,9.376
				h6.817v5.115h-76.713V258.794z"/>
			<path d="M781.418,104.227c16.48,17.618,24.716,39.211,24.716,64.497c0,26.141-8.521,48.303-25.287,66.204
				c-17.332,19.036-39.492,28.697-66.202,28.697c-27.843,0-50.007-9.092-66.487-27.562c-15.909-17.332-23.868-39.494-23.868-66.77
				c0-28.412,10.23-51.711,30.404-69.896c17.047-15.628,37.788-23.299,62.226-23.299C742.774,76.099,764.367,85.476,781.418,104.227
				z M651.285,145.428c0,12.217,2.271,25.57,6.536,39.777c5.68,17.332,13.353,32.108,23.012,44.325
				c12.786,15.343,27.276,23.014,43.471,23.014c4.832,0,10.23-0.852,15.913-2.556c26.424-7.673,39.496-26.424,39.496-56.259
				c0-11.932-2.275-25.003-6.536-39.209c-14.49-45.746-36.369-68.477-66.202-68.477c-5.969,0-11.934,0.852-17.903,2.842
				C663.786,96.273,651.285,115.024,651.285,145.428z"/>
			<path d="M895.898,75.815c27.558,0.852,47.165,7.955,58.247,21.31c7.103,8.523,10.796,18.753,10.796,30.685
				c0,17.049-5.684,30.118-16.765,39.211c-10.226,8.523-24.149,12.786-41.482,12.786c-8.525,0-21.026-1.138-37.792-3.694v54.553
				c0,9.661,0.571,15.911,1.708,18.753c2.556,6.25,8.521,9.376,18.466,9.376h6.821v5.115h-76.717v-5.115h6.821
				c7.955,0,13.353-2.556,16.761-7.388c2.275-3.125,3.127-9.944,3.127-20.741V105.648c-0.285-8.809-1.138-14.49-3.127-17.332
				c-3.409-4.829-8.807-7.386-16.761-7.386h-7.107v-5.115H895.898z M868.903,109.059v59.099c14.209,1.704,23.868,2.556,28.985,2.556
				c10.796,0,19.603-3.977,26.139-12.217c6.25-7.671,9.378-16.763,9.378-27.845c0-18.184-6.536-30.97-19.322-38.358
				c-6.25-3.692-13.072-5.398-20.741-5.398C877.428,86.895,869.188,94.283,868.903,109.059z"/>
			<path d="M1054.706,74.963h4.832l65.349,153.146c6.25,15.343,13.638,28.981,32.393,30.685v5.115
				c-25.005,0.569-50.007-11.365-60.522-35.8l-11.363-29.55h-73.023l-12.786,32.106c-3.123,7.103-4.546,12.503-4.546,16.195
				c0,6.821,7.103,10.798,21.593,11.934v5.115h-57.395v-5.115c11.082-0.852,17.051-2.273,23.016-11.934L1054.706,74.963z
				 M1081.416,188.33l-31.823-70.179l-32.96,70.179H1081.416z"/>
			<path d="M1191.64,258.794h6.817c7.955,0,13.353-2.556,17.047-7.388c1.99-3.125,2.842-9.944,2.842-20.741V105.648
				c0-6.25-0.567-12.501-3.694-18.184h-19.889c-8.24,0-13.924,0.569-17.618,1.704c-11.93,3.694-18.466,13.924-19.603,30.687h-5.398
				l2.271-44.04h153.715l1.99,44.04h-5.398c-0.852-7.671-2.271-13.355-3.975-16.48c-5.684-10.513-15.913-15.911-30.404-15.911
				h-25.287c-2.556,3.125-3.694,10.23-3.694,21.595v121.607c0,9.661,0.567,15.911,1.704,18.753c2.556,6.25,8.525,9.376,18.47,9.376
				h6.817v5.115h-76.713V258.794z"/>
			<path d="M1512.969,264.193h-79.558v-5.113h6.821c9.944,0,15.909-3.411,18.47-9.944c0.281-1.706,0.852-4.263,1.134-7.388v-68.477
				h-87.228l0.852,71.033c0.571,3.411,1.138,5.967,2.275,7.388c3.409,4.829,8.807,7.388,16.761,7.388h6.821v5.113h-79.559v-5.398
				h6.821c7.955,0,13.353-2.556,16.765-7.388c1.134-1.419,1.986-4.261,2.556-7.671l-0.285-148.031
				c-0.567-3.411-1.138-5.967-2.271-7.388c-3.412-4.829-8.811-7.386-16.765-7.386h-6.821v-5.115h79.559v5.115h-6.821
				c-9.944,0-15.909,3.409-18.466,9.944c-0.852,3.125-1.423,9.376-1.423,18.468v53.701h87.228l-0.567-67.623
				c-0.567-3.411-1.137-5.967-2.271-7.388c-3.413-4.831-8.811-7.388-16.766-7.388h-6.821V75.53h79.558v0.285h0.281v5.115h-7.103
				c-7.955,0-13.353,2.556-16.761,7.386c-1.99,2.842-2.842,7.957-3.127,16.197c1.138,141.495,1.138,143.202,1.704,144.337
				c0.285,1.138,0.852,1.99,1.423,2.556c3.409,4.831,8.807,7.388,16.761,7.388h6.821V264.193z"/>
		</g>
		<rect x="74.963" y="303.438" width="1469.032" height="11.005"/>
		<rect x="74.963" y="571.287" width="1469.032" height="11.005"/>
		<g>
			<path d="M126.123,536.964h6.821c7.955,0,13.353-2.556,17.047-7.386c1.99-3.127,2.842-9.946,2.842-20.743V383.818
				c0-6.25-0.571-12.501-3.694-18.184H129.25c-8.24,0-13.924,0.569-17.618,1.704c-11.934,3.694-18.47,13.924-19.603,30.687h-5.402
				l2.275-44.04h153.715l1.99,44.04h-5.398c-0.852-7.671-2.275-13.355-3.979-16.48c-5.684-10.513-15.909-15.911-30.404-15.911
				h-25.287c-2.556,3.125-3.694,10.23-3.694,21.595v121.607c0,9.661,0.571,15.911,1.704,18.753c2.56,6.25,8.525,9.376,18.47,9.376
				h6.821v5.115h-76.717V536.964z"/>
			<path d="M253.96,536.964h7.106c7.669,0,13.068-2.556,16.761-7.386c1.99-3.127,2.842-9.946,2.842-20.743V383.818
				c-0.285-8.807-1.138-14.49-2.842-17.332c-3.694-4.829-9.092-7.388-16.761-7.388h-7.106v-5.113h76.717
				c12.786,0.283,22.164,1.136,28.699,2.556c12.215,2.556,21.874,7.671,29.262,15.343c8.24,8.24,12.219,18.47,12.219,30.404
				c0,25.287-15.343,41.198-46.313,48.301l38.64,53.984c7.673,10.798,14.49,18.184,20.174,22.447
				c7.103,5.398,16.48,8.523,27.847,9.944v5.115c-24.72,0.852-43.757-4.263-56.543-15.059c-12.219-9.944-31.541-34.379-57.68-73.021
				c-4.546,0.283-8.521,0.283-11.649,0.283c-4.831,0-8.807,0-11.649-0.283v54.836c0,9.661,0.567,15.911,1.704,18.753
				c2.556,6.25,8.525,9.376,18.47,9.376h6.817v5.115H253.96V536.964z M306.809,366.486c-1.986,3.125-3.123,9.944-3.123,20.743
				v58.245h11.363c15.061,0,27.562-3.125,37.221-9.092c11.653-7.103,17.332-17.899,17.332-32.106
				c0-24.151-16.195-39.777-40.344-39.777C324.427,364.498,317.039,365.065,306.809,366.486z"/>
			<path d="M546.309,353.133h4.831l65.349,153.146c6.25,15.343,13.638,28.981,32.389,30.685v5.115
				c-25.002,0.569-50.007-11.365-60.518-35.8l-11.367-29.55h-73.019l-12.786,32.106c-3.127,7.104-4.546,12.503-4.546,16.197
				c0,6.817,7.103,10.797,21.593,11.932v5.115h-57.395v-5.115c11.082-0.852,17.047-2.273,23.016-11.932L546.309,353.133z
				 M573.019,466.499l-31.823-70.179l-32.96,70.179H573.019z"/>
			<path d="M691.768,359.098c-13.924,1.138-20.745,5.4-20.745,12.503c0,4.263,2.275,11.649,6.821,21.878l47.732,105.696
				l44.042-105.412c11.082-26.991,25.858-40.629,44.894-40.629v5.113c-7.673,1.421-13.924,4.546-18.184,9.378
				c-3.127,3.409-6.536,9.376-10.23,17.899l-65.635,156.273h-5.113l-80.977-180.708c-3.127-1.136-6.536-1.99-10.796-1.99h-7.106
				v-5.113h75.298V359.098z"/>
			<path d="M930.13,454.282c-0.285-3.125-0.852-5.398-1.99-5.682h-49.44v62.224c0,8.24,0.285,13.069,1.138,15.059
				c1.423,3.977,5.969,5.965,13.924,5.965h32.389c9.944,0,17.618-0.852,23.016-2.271c10.511-3.127,21.026-14.776,31.537-34.664
				h5.684l-16.48,47.165H825v-5.115h7.107c7.669,0,13.068-2.556,16.761-7.386c1.99-3.127,2.842-9.946,2.842-20.743V383.818
				c-0.285-8.807-1.138-14.49-2.842-17.332c-3.694-4.829-9.092-7.388-16.761-7.388H825v-5.113h144.908l1.99,41.198h-5.113
				c-1.99-8.523-3.694-14.774-5.402-18.468c-3.123-5.967-7.955-9.661-14.772-11.082c-4.265-0.852-9.663-1.421-16.765-1.421h-51.144
				v74.444h49.44c1.99-0.854,1.704-3.694,1.99-6.252h5.113v21.878H930.13z"/>
			<path d="M996.594,536.964h6.821c7.669,0,13.353-2.556,16.761-7.386c1.99-3.127,3.127-9.946,3.127-20.743V383.818
				c-0.285-8.807-1.138-14.49-3.127-17.332c-3.409-4.829-9.092-7.388-16.761-7.388h-7.107v-5.113h77.002v5.113h-6.821
				c-7.669,0-13.068,2.275-16.761,6.821c-2.275,2.84-3.413,9.944-3.413,21.31v121.607c0,9.661,0.856,16.48,2.275,20.174
				c3.127,0.852,9.944,1.136,20.741,1.136h13.638c17.332,0,30.118-2.842,38.358-8.24s15.909-16.195,22.445-31.823l4.546,0.852
				l-15.909,51.145H996.594V536.964z"/>
			<path d="M1263.089,454.282c-0.281-3.125-0.852-5.398-1.986-5.682h-49.44v62.224c0,8.24,0.285,13.069,1.138,15.059
				c1.419,3.977,5.965,5.965,13.92,5.965h32.393c9.944,0,17.614-0.852,23.012-2.271c10.515-3.127,21.026-14.776,31.541-34.664h5.68
				l-16.476,47.165h-144.908v-5.115h7.102c7.673,0,13.072-2.556,16.766-7.386c1.99-3.127,2.842-9.946,2.842-20.743V383.818
				c-0.285-8.807-1.138-14.49-2.842-17.332c-3.694-4.829-9.092-7.388-16.766-7.388h-7.102v-5.113h144.908l1.986,41.198h-5.113
				c-1.99-8.523-3.694-14.774-5.398-18.468c-3.127-5.967-7.955-9.661-14.776-11.082c-4.261-0.852-9.659-1.421-16.761-1.421h-51.145
				v74.444h49.44c1.986-0.854,1.704-3.694,1.986-6.252h5.117v21.878H1263.089z"/>
			<path d="M1329.271,536.964h7.103c7.673,0,13.071-2.556,16.765-7.386c1.99-3.127,2.842-9.946,2.842-20.743V383.818
				c-0.285-8.807-1.137-14.49-2.842-17.332c-3.694-4.829-9.092-7.388-16.765-7.388h-7.103v-5.113h76.717
				c12.786,0.283,22.16,1.136,28.695,2.556c12.219,2.556,21.878,7.671,29.266,15.343c8.24,8.24,12.215,18.47,12.215,30.404
				c0,25.287-15.343,41.198-46.313,48.301l38.644,53.984c7.669,10.798,14.49,18.184,20.174,22.447
				c7.103,5.398,16.48,8.523,27.843,9.944v5.115c-24.72,0.852-43.757-4.263-56.543-15.059
				c-12.215-9.944-31.537-34.379-57.676-73.021c-4.546,0.283-8.526,0.283-11.653,0.283c-4.828,0-8.807,0-11.649-0.283v54.836
				c0,9.661,0.571,15.911,1.704,18.753c2.56,6.25,8.525,9.376,18.47,9.376h6.821v5.115h-76.717V536.964z M1382.119,366.486
				c-1.99,3.125-3.127,9.944-3.127,20.743v58.245h11.367c15.057,0,27.558-3.125,37.221-9.092
				c11.649-7.103,17.332-17.899,17.332-32.106c0-24.151-16.195-39.777-40.348-39.777
				C1399.733,364.498,1392.349,365.065,1382.119,366.486z"/>
		</g>
	</g>
	<g>
		<path d="M1546.551,523.398h-7.543v19.746h-3.761v-19.746h-7.543v-3.555h18.847V523.398z"/>
		<path d="M1575.444,543.144h-3.761v-19.172l-6.806,16.896h-3.967l-6.806-16.722v18.998h-3.761v-23.301h5.776l6.773,16.646
			l6.773-16.646h5.776V543.144z"/>
	</g>
</g>
</svg>
